<svg xmlns="http://www.w3.org/2000/svg" width="22" height="22" viewBox="0 0 22 22">
    <rect x="1" y="4" width="20" height="14" rx="2" ry="2" fill="#555" stroke="#777" stroke-width="0.5"/>
    <rect x="3" y="6" width="2" height="2" rx="0.3" fill="#999"/>
    <rect x="6" y="6" width="2" height="2" rx="0.3" fill="#999"/>
    <rect x="9" y="6" width="2" height="2" rx="0.3" fill="#999"/>
    <rect x="12" y="6" width="2" height="2" rx="0.3" fill="#999"/>
    <rect x="15" y="6" width="2" height="2" rx="0.3" fill="#999"/>
    <rect x="18" y="6" width="2" height="2" rx="0.3" fill="#999"/>
    <rect x="3" y="9" width="2" height="2" rx="0.3" fill="#999"/>
    <rect x="6" y="9" width="2" height="2" rx="0.3" fill="#999"/>
    <rect x="9" y="9" width="2" height="2" rx="0.3" fill="#999"/>
    <rect x="12" y="9" width="2" height="2" rx="0.3" fill="#999"/>
    <rect x="15" y="9" width="2" height="2" rx="0.3" fill="#999"/>
    <rect x="18" y="9" width="2" height="2" rx="0.3" fill="#999"/>
    <rect x="5" y="12" width="12" height="2" rx="0.3" fill="#999"/>
</svg>
